<svg width="30" height="30" viewBox="0 0 30 30" fill="none" xmlns="http://www.w3.org/2000/svg">
<path d="M17.8716 14.7656C17.4028 14.5894 17.4028 13.9162 17.3738 13.4475C17.2566 11.7778 17.8425 9.22874 17.1394 8.14499C16.6416 7.49999 14.2388 7.55906 12.7744 7.64718C12.3638 7.70624 11.866 7.79343 11.5144 7.96968C11.1628 8.14593 10.8113 8.43843 10.8113 8.70187C10.8113 9.08249 11.6906 9.02437 12.0122 9.52218C12.3638 10.05 12.3638 11.1919 12.3638 12.1294C12.3638 13.2131 12.1875 14.6494 11.7488 14.7075C11.0747 14.7366 10.6941 14.0625 10.3425 13.5647C9.63939 12.5981 8.93626 11.3962 8.40845 10.2244C8.14501 9.60937 7.99783 8.93531 7.6172 8.67187C7.03126 8.26124 5.97658 8.23218 4.95095 8.26125C4.01345 8.29031 2.66533 8.17312 2.40189 8.73C2.19658 9.345 2.63626 9.93093 2.87064 10.4297C4.07158 13.0369 5.36064 15.3225 6.94314 17.49C8.40845 19.5112 9.7847 21.1228 12.48 21.9722C13.2422 22.2066 16.5816 22.8806 17.2556 21.9722C17.49 21.6206 17.4319 20.8294 17.5491 20.2434C17.6663 19.6575 17.8125 19.0716 18.3694 19.0425C18.8381 19.0134 19.1016 19.4231 19.395 19.7166C19.7175 20.0391 19.981 20.3025 20.2153 20.5959C20.7722 21.1528 21.3581 21.9141 22.0613 22.2075C23.0278 22.6181 24.5222 22.5009 25.9285 22.4419C27.0713 22.4128 27.8916 22.1784 27.9797 21.5044C28.0388 20.9766 27.4519 20.2153 27.1003 19.7756C26.221 18.6919 25.8113 18.3694 24.8147 17.3728C24.375 16.9331 23.8181 16.4644 23.8181 15.9375C23.7891 15.615 24.0525 15.3225 24.2869 15C25.3125 13.4766 26.3381 12.3928 27.2756 10.8103C27.5391 10.3416 28.155 9.25781 27.9206 8.73C27.6572 8.14406 26.1919 8.31937 25.2835 8.31937C24.1116 8.31937 22.5881 8.23124 22.2947 8.46562C21.7378 8.84624 21.5035 9.46218 21.24 10.0481C20.6541 11.3962 19.8628 12.7725 19.0425 13.7981C18.7491 14.1497 18.1931 14.8819 17.8706 14.7647L17.8716 14.7656Z" fill="white"/>
</svg>
